<svg width="64" height="64" viewBox="0 0 64 64" fill="none" xmlns="http://www.w3.org/2000/svg">
<path d="M9.3335 53.3333C8.26683 53.3333 7.3335 52.9333 6.5335 52.1333C5.7335 51.3333 5.3335 50.4 5.3335 49.3333V14.6667C5.3335 13.6 5.7335 12.6667 6.5335 11.8667C7.3335 11.0667 8.26683 10.6667 9.3335 10.6667H54.6668C55.7335 10.6667 56.6668 11.0667 57.4668 11.8667C58.2668 12.6667 58.6668 13.6 58.6668 14.6667V49.3333C58.6668 50.4 58.2668 51.3333 57.4668 52.1333C56.6668 52.9333 55.7335 53.3333 54.6668 53.3333H9.3335ZM9.3335 21.9333H54.6668V14.6667H9.3335V21.9333ZM9.3335 30.5333V49.3333H54.6668V30.5333H9.3335ZM9.3335 49.3333V14.6667V49.3333Z" fill="#9D9898"/>
</svg>
