<svg width="134" height="136" viewBox="0 0 134 136" fill="none" xmlns="http://www.w3.org/2000/svg">
    <g filter="url(#filter0_d_4_5)">
        <path fill-rule="evenodd" clip-rule="evenodd"
            d="M25.1365 27.4179C23.2562 4.28272 38.625 -1.02912 52.1564 1.62258C92.4618 9.52105 139.833 56.1151 130.641 105.126C127.18 123.579 112.273 133.895 97.0741 133.904C80.0067 133.914 65.8645 120.63 54.7678 103.433C39.5897 79.9116 30.1096 49.0695 26.6359 34.9146C25.6387 30.8514 25.1365 28.1632 25.1365 27.4179ZM112.256 68.6903C108.173 93.3961 93.5134 103.214 79.1278 108.7C103.201 103.964 110.503 95.2512 112.256 68.6903ZM92.478 38.26C87.6097 60.558 78.9485 70.1646 56.7529 84.0063C84.4342 76.4293 93.1396 67.3886 92.478 38.26ZM47.9783 41.4441C57.9385 37.9301 62.2565 34.9571 64.6918 25.4832C65.2923 36.4259 62.1604 40.2693 47.9783 41.4441Z"
            fill="#C06B2C" />
        <path fill-rule="evenodd" clip-rule="evenodd"
            d="M2.08575 84.0063C-3.4598 62.8049 12.0657 45.8259 26.6359 34.9146C30.1096 49.0695 39.5897 79.9116 54.7678 103.433C33.0158 108.169 8.34279 107.928 2.08575 84.0063ZM18.7296 63.5313C27.5349 72.1766 30.3072 78.0578 28.897 91.5837C32.5528 76.2106 30.1237 70.1866 18.7296 63.5313Z"
            fill="#C06B2C" />
        <path
            d="M92.478 38.26C87.6097 60.558 78.9485 70.1646 56.7529 84.0063C84.4342 76.4293 93.1396 67.3886 92.478 38.26Z"
            fill="#FFC666" />
        <path
            d="M112.256 68.6903C108.173 93.3961 93.5134 103.214 79.1278 108.7C103.201 103.964 110.503 95.2512 112.256 68.6903Z"
            fill="#FFC666" />
        <path
            d="M47.9783 41.4441C57.9385 37.9301 62.2565 34.9571 64.6918 25.4832C65.2923 36.4259 62.1604 40.2693 47.9783 41.4441Z"
            fill="#FFC666" />
        <path
            d="M18.7296 63.5313C27.5349 72.1766 30.3072 78.0578 28.897 91.5837C32.5528 76.2106 30.1237 70.1866 18.7296 63.5313Z"
            fill="#FFC666" />
        <path
            d="M25.1365 27.4179H25.6457V27.3972L25.644 27.3766L25.1365 27.4179ZM52.1564 1.62258L52.0585 2.12233L52.1564 1.62258ZM130.641 105.126L131.141 105.22L130.641 105.126ZM97.0741 133.904L97.0744 134.413L97.0741 133.904ZM92.478 38.26L92.9871 38.2484L91.9805 38.1513L92.478 38.26ZM56.7529 84.0063L56.4834 83.5742L56.8873 84.4975L56.7529 84.0063ZM112.256 68.6903L112.764 68.7239L111.753 68.6073L112.256 68.6903ZM79.1278 108.7L78.9463 108.224L79.2261 109.2L79.1278 108.7ZM47.9783 41.4441L47.8089 40.9638L48.0203 41.9516L47.9783 41.4441ZM64.6918 25.4832L65.2003 25.4553L64.1986 25.3564L64.6918 25.4832ZM2.08575 84.0063L2.57843 83.8774L2.08575 84.0063ZM54.7678 103.433L55.1957 103.157L54.7678 103.433ZM18.7296 63.5313L18.9865 63.0916L18.3728 63.8947L18.7296 63.5313ZM28.897 91.5837L28.3905 91.5309L29.3925 91.7015L28.897 91.5837ZM25.644 27.3766C24.7135 15.9273 28.0536 9.01422 33.1684 5.26072C38.3117 1.48625 45.3741 0.812419 52.0585 2.12233L52.2544 1.12283C45.4073 -0.218956 38.0196 0.437285 32.5658 4.4396C27.0834 8.46288 23.6791 15.7733 24.6289 27.4591L25.644 27.3766ZM52.0585 2.12233C72.0789 6.04563 93.9002 19.5962 109.57 38.2844C125.237 56.9693 134.7 80.7208 130.14 105.032L131.141 105.22C135.774 80.5206 126.147 56.4695 110.35 37.63C94.5564 18.7937 72.5394 5.098 52.2544 1.12283L52.0585 2.12233ZM130.14 105.032C126.727 123.232 112.041 133.386 97.0738 133.395L97.0744 134.413C112.506 134.404 127.633 123.926 131.141 105.22L130.14 105.032ZM91.9805 38.1513C89.5573 49.2503 86.2004 57.1461 80.7159 63.9857C75.2229 70.8359 67.5686 76.6612 56.4834 83.5742L57.0224 84.4384C68.1328 77.5097 75.9069 71.6109 81.5105 64.6228C87.1226 57.6242 90.5305 49.5677 92.9756 38.3686L91.9805 38.1513ZM111.753 68.6073C109.727 80.8678 105.084 89.4021 99.1878 95.5501C93.2859 101.704 86.1006 105.496 78.9463 108.224L79.3092 109.176C86.5406 106.418 93.878 102.558 99.9229 96.2551C105.974 89.9462 110.702 81.2187 112.758 68.7734L111.753 68.6073ZM48.1477 41.9243C53.1349 40.1648 56.7882 38.5162 59.4976 36.0771C62.2243 33.6223 63.9516 30.4084 65.185 25.61L64.1986 25.3564C62.9967 30.0319 61.3473 33.0414 58.8161 35.3201C56.2676 37.6144 52.7818 39.2093 47.8089 40.9638L48.1477 41.9243ZM27.1304 34.7933C26.6332 32.767 26.2602 31.0871 26.0119 29.8238C25.7596 28.54 25.6457 27.7319 25.6457 27.4179H24.6272C24.6272 27.8491 24.7644 28.7578 25.0125 30.0202C25.2647 31.3031 25.6414 32.999 26.1413 35.036L27.1304 34.7933ZM26.3306 34.507C19.0198 39.9819 11.439 47.0004 6.382 55.3375C1.31854 63.6854 -1.22228 73.3717 1.59307 84.1352L2.57843 83.8774C-0.151778 73.4395 2.29739 64.0356 7.25283 55.8658C12.2148 47.6852 19.6818 40.7586 26.9411 35.3223L26.3306 34.507ZM97.0738 133.395C80.285 133.405 66.2756 120.328 55.1957 103.157L54.3399 103.71C65.4534 120.932 79.7284 134.424 97.0744 134.413L97.0738 133.395ZM55.1957 103.157C40.0628 79.7055 30.5991 48.9273 27.1304 34.7933L26.1413 35.036C29.6201 49.2117 39.1166 80.1176 54.3399 103.71L55.1957 103.157ZM1.59307 84.1352C4.77409 96.2967 12.6642 102.461 22.4907 104.96C32.2753 107.448 43.9747 106.304 54.8762 103.931L54.6595 102.936C43.809 105.298 32.2959 106.402 22.7417 103.973C13.2294 101.554 5.65445 95.6375 2.57843 83.8774L1.59307 84.1352ZM18.3728 63.8947C22.758 68.2001 25.5901 71.7698 27.1683 75.9087C28.7455 80.0449 29.0916 84.8061 28.3905 91.5309L29.4035 91.6365C30.1126 84.8353 29.7777 79.893 28.12 75.5458C26.4633 71.2013 23.5066 67.5077 19.0864 63.1679L18.3728 63.8947ZM91.9689 38.2715C92.2989 52.8016 90.2854 62.1901 84.8485 68.8942C79.403 75.609 70.4461 79.7301 56.6184 83.5151L56.8873 84.4975C70.7409 80.7054 79.9774 76.5177 85.6396 69.5357C91.3104 62.5431 93.3187 52.8469 92.9871 38.2484L91.9689 38.2715ZM111.748 68.6568C110.873 81.9159 108.616 90.5943 103.67 96.5542C98.7317 102.506 91.0339 105.838 79.0294 108.2L79.2261 109.2C91.2951 106.825 99.2852 103.434 104.454 97.2046C109.616 90.9839 111.886 82.0256 112.764 68.7239L111.748 68.6568ZM64.1833 25.5111C64.4824 30.9623 63.8332 34.4565 61.5188 36.7662C59.18 39.1 55.0241 40.3495 47.9362 40.9366L48.0203 41.9516C55.1146 41.3639 59.6156 40.1043 62.2382 37.4871C64.8852 34.8456 65.5016 30.9468 65.2003 25.4553L64.1833 25.5111ZM18.4728 63.971C24.136 67.2789 27.4665 70.3723 28.9793 74.4649C30.4988 78.5754 30.225 83.7981 28.4016 91.4659L29.3925 91.7015C31.2248 83.9962 31.5643 78.5203 29.9347 74.1117C28.2984 69.6852 24.7174 66.439 18.9865 63.0916L18.4728 63.971Z"
            fill="#FFD080" />
    </g>
    <defs>
        <filter id="filter0_d_4_5" x="0.425507" y="0.490967" width="133.104" height="135.145"
            filterUnits="userSpaceOnUse" color-interpolation-filters="sRGB">
            <feFlood flood-opacity="0" result="BackgroundImageFix" />
            <feColorMatrix in="SourceAlpha" type="matrix" values="0 0 0 0 0 0 0 0 0 0 0 0 0 0 0 0 0 0 127 0"
                result="hardAlpha" />
            <feOffset dx="0.611382" dy="0.611382" />
            <feGaussianBlur stdDeviation="0.305691" />
            <feComposite in2="hardAlpha" operator="out" />
            <feColorMatrix type="matrix" values="0 0 0 0 0 0 0 0 0 0 0 0 0 0 0 0 0 0 0.25 0" />
            <feBlend mode="normal" in2="BackgroundImageFix" result="effect1_dropShadow_4_5" />
            <feBlend mode="normal" in="SourceGraphic" in2="effect1_dropShadow_4_5" result="shape" />
        </filter>
    </defs>
</svg>