<svg width="30" height="28" viewBox="0 0 30 28" fill="none" xmlns="http://www.w3.org/2000/svg">
<path d="M13.4615 2.07762C14.0234 0.433712 16.3483 0.433712 16.9102 2.07762L19.0719 8.40188C19.324 9.13928 20.017 9.63481 20.7963 9.63481H27.5874C29.375 9.63481 30.0939 11.9407 28.623 12.9566L23.2904 16.6395C22.6191 17.1032 22.3377 17.9564 22.6016 18.7284L24.6755 24.7958C25.2439 26.4586 23.3614 27.8833 21.9155 26.8847L16.2215 22.9521C15.5982 22.5217 14.7735 22.5217 14.1502 22.9521L8.45621 26.8847C7.01027 27.8833 5.12784 26.4586 5.69621 24.7958L7.77009 18.7284C8.03396 17.9564 7.7526 17.1032 7.08131 16.6395L1.74874 12.9566C0.277833 11.9407 0.996736 9.63481 2.78435 9.63481H9.5754C10.3547 9.63481 11.0477 9.13928 11.2998 8.40188L13.4615 2.07762Z" fill="white"/>
<path d="M14.3237 2.37232C14.6046 1.55037 15.7671 1.55037 16.048 2.37232L18.2097 8.69658C18.5878 9.80269 19.6274 10.546 20.7963 10.546H27.5874C28.4812 10.546 28.8406 11.6989 28.1052 12.2069L22.7726 15.8898C21.7657 16.5852 21.3436 17.8652 21.7394 19.0231L23.8133 25.0905C24.0975 25.9219 23.1563 26.6343 22.4333 26.135L16.7393 22.2024C15.8043 21.5567 14.5674 21.5567 13.6324 22.2024L7.93841 26.135C7.21543 26.6343 6.27422 25.9219 6.5584 25.0905L8.63229 19.0231C9.02809 17.8652 8.60605 16.5852 7.59912 15.8898L2.26654 12.2069C1.5311 11.6989 1.89054 10.546 2.78435 10.546H9.5754C10.7443 10.546 11.7839 9.80269 12.162 8.69658L14.3237 2.37232Z" stroke="#9E9E9E" stroke-opacity="0.6" stroke-width="1.82234"/>
</svg>
