<svg width="54" height="54" viewBox="0 0 54 54" fill="none" xmlns="http://www.w3.org/2000/svg">
<path d="M36.431 39.5495L39.4461 36.5344L28.7929 25.8142V12.3469H24.7728V27.4222L36.431 39.5495ZM26.5818 53.4188C22.9191 53.4188 19.4573 52.7153 16.1966 51.3083C12.9359 49.9012 10.0883 47.9805 7.65392 45.5461C5.21953 43.1117 3.29882 40.2642 1.89179 37.0035C0.484765 33.7427 -0.21875 30.281 -0.21875 26.6182C-0.21875 22.9555 0.484765 19.4937 1.89179 16.233C3.29882 12.9723 5.21953 10.1247 7.65392 7.69033C10.0883 5.25594 12.9359 3.33523 16.1966 1.9282C19.4573 0.521172 22.9191 -0.182343 26.5818 -0.182343C30.2446 -0.182343 33.7063 0.521172 36.967 1.9282C40.2278 3.33523 43.0753 5.25594 45.5097 7.69033C47.9441 10.1247 49.8648 12.9723 51.2719 16.233C52.6789 19.4937 53.3824 22.9555 53.3824 26.6182C53.3824 30.281 52.6789 33.7427 51.2719 37.0035C49.8648 40.2642 47.9441 43.1117 45.5097 45.5461C43.0753 47.9805 40.2278 49.9012 36.967 51.3083C33.7063 52.7153 30.2446 53.4188 26.5818 53.4188ZM26.5818 49.3987C32.8353 49.3987 38.1954 47.1653 42.6622 42.6986C47.1289 38.2318 49.3623 32.8717 49.3623 26.6182C49.3623 20.3648 47.1289 15.0046 42.6622 10.5379C38.1954 6.07112 32.8353 3.83774 26.5818 3.83774C20.3284 3.83774 14.9682 6.07112 10.5015 10.5379C6.03472 15.0046 3.80134 20.3648 3.80134 26.6182C3.80134 32.8717 6.03472 38.2318 10.5015 42.6986C14.9682 47.1653 20.3284 49.3987 26.5818 49.3987Z" fill="#9E9E9E"/>
</svg>
